<?xml version="1.0" encoding="iso-8859-1"?>
<!-- Generator: Adobe Illustrator 19.0.0, SVG Export Plug-In . SVG Version: 6.00 Build 0)  -->
<svg version="1.1" id="Capa_1" xmlns="http://www.w3.org/2000/svg" xmlns:xlink="http://www.w3.org/1999/xlink" x="0px" y="0px"
	 viewBox="0 0 490 490" style="enable-background:new 0 0 490 490;" xml:space="preserve">
<g>
	<path d="M480.17,13.992H282.281c-5.434,0-9.83,4.396-9.83,9.83v67.995V221.72c0,5.433,4.396,9.83,9.83,9.83H480.17
		c5.434,0,9.83-4.397,9.83-9.83V91.817V23.822C490,18.387,485.604,13.992,480.17,13.992z M292.111,33.652H470.34v48.335H292.111
		V33.652z M470.34,211.89H292.111V101.647H470.34V211.89z"/>
	<path d="M207.73,258.449H9.83c-5.433,0-9.83,4.397-9.83,9.83v67.995v129.905c0,5.433,4.397,9.83,9.83,9.83H207.73
		c5.433,0,9.83-4.397,9.83-9.83V336.274v-67.995C217.56,262.846,213.163,258.449,207.73,258.449z M19.66,278.109h178.239v48.335
		H19.66V278.109z M197.899,456.348H19.66V346.104h178.239V456.348z"/>
	<path d="M418.761,298.508l-35.174,35.519l13.978,13.843l18.355-18.543v79.405H312.616v19.66h113.133c5.433,0,9.83-4.397,9.83-9.83
		v-89.235l18.355,18.543l13.977-13.843l-35.174-35.519C429.033,294.784,422.466,294.784,418.761,298.508z"/>
	<path d="M64.262,194.409c2.486,0,4.972-0.941,6.883-2.813l36.181-35.518l-13.766-14.035l-19.468,19.11V81.266h103.302v-19.66
		H64.262c-5.434,0-9.83,4.397-9.83,9.83v89.72l-19.478-19.114l-13.766,14.035l36.192,35.518
		C59.288,193.469,61.775,194.409,64.262,194.409z"/>
	<rect x="390.576" y="47.533" width="50.917" height="19.66"/>
	<rect x="126.899" y="292.451" width="50.917" height="19.66"/>
</g>
<g>
</g>
<g>
</g>
<g>
</g>
<g>
</g>
<g>
</g>
<g>
</g>
<g>
</g>
<g>
</g>
<g>
</g>
<g>
</g>
<g>
</g>
<g>
</g>
<g>
</g>
<g>
</g>
<g>
</g>
</svg>
