<?xml version="1.0" ?><svg width="64px" height="64px" viewBox="0 0 64 64" xmlns="http://www.w3.org/2000/svg"><title/><path d="M32,3A29,29,0,1,0,61,32,29,29,0,0,0,32,3ZM53.78,16.07A22.42,22.42,0,0,1,53,28.69l-.15.46a11.94,11.94,0,0,0-2.39-6.47c-2.32-2.75-3.26-4.12-3.26-6.69s1.91-4,2.75-4l.1,0A27.22,27.22,0,0,1,53.78,16.07ZM32,5a26.86,26.86,0,0,1,16.31,5.5A6.47,6.47,0,0,0,45.25,16c0,3.2,1.2,5,3.74,8,3.17,3.75,1.72,11.73,1.62,12.29L46.88,47.82,36.07,19h3.85a1,1,0,0,0,0-2H23.46a1,1,0,0,0,0,2h1.76s0,0,0,0l5.23,14.57L25.88,47.82,15.07,19H19a1,1,0,0,0,0-2H9.56A27,27,0,0,1,32,5Zm9.13,52.41L27.35,19H34a1,1,0,0,0,.06.35L45.77,50.57a1,1,0,0,0,.14.25l-1.63,5.06a1,1,0,0,0,0,.16A26.83,26.83,0,0,1,41.13,57.41ZM19.62,56,7.19,21.36Q7.71,20.15,8.34,19H13a1,1,0,0,0,.06.35L24.77,50.57a1,1,0,0,0,.14.25l-2.12,6.56A26.84,26.84,0,0,1,19.62,56ZM5,32a26.9,26.9,0,0,1,1.12-7.7l10.8,30.08A27,27,0,0,1,5,32ZM24.7,58l6.87-21.3L39.22,58A26.86,26.86,0,0,1,24.7,58Zm22.1-3.43,8.14-25.24a25.5,25.5,0,0,0,1.4-9A27,27,0,0,1,46.8,54.56Z"/></svg>