<?xml version="1.0" encoding="iso-8859-1"?>
<!-- Generator: Adobe Illustrator 19.0.0, SVG Export Plug-In . SVG Version: 6.00 Build 0)  -->
<svg version="1.1" id="Layer_1" xmlns="http://www.w3.org/2000/svg" xmlns:xlink="http://www.w3.org/1999/xlink" x="0px" y="0px"
	 viewBox="0 0 512.002 512.002" style="enable-background:new 0 0 512.002 512.002;" xml:space="preserve">
<g>
	<g>
		<path d="M373.333,277.335c5.888,0,10.667-4.779,10.667-10.667v-256c0-5.888-4.779-10.667-10.667-10.667H138.667
			c-1.429,0-2.837,0.299-4.139,0.832c-0.405,0.171-0.704,0.491-1.067,0.725c-0.811,0.469-1.664,0.896-2.347,1.557l-128,128
			c-0.491,0.491-0.768,1.152-1.152,1.728c-0.384,0.576-0.875,1.067-1.131,1.707C0.299,135.852,0,137.239,0,138.668v362.667
			c0,5.888,4.779,10.667,10.667,10.667h362.667c5.888,0,10.667-4.779,10.667-10.667v-64c0-5.888-4.779-10.667-10.667-10.667
			c-5.888,0-10.667,4.779-10.667,10.667v53.333H21.333V149.334h117.333c5.888,0,10.667-4.779,10.667-10.667V21.334h213.333v245.333
			C362.667,272.556,367.445,277.335,373.333,277.335z M128,128.001H36.416L128,36.417V128.001z"/>
	</g>
</g>
<g>
	<g>
		<path d="M205.248,299.009c-5.824-1.429-11.52,2.027-12.928,7.765l-13.653,54.613l-19.52-45.568
			c-3.371-7.851-16.256-7.851-19.627,0L120,361.388l-13.653-54.613c-1.408-5.739-7.317-9.216-12.928-7.765
			c-5.717,1.429-9.173,7.211-7.765,12.928l21.333,85.333c1.109,4.437,4.928,7.68,9.493,8.043c4.907,0.405,8.853-2.24,10.667-6.443
			l22.187-51.776l22.187,51.776c1.707,3.947,5.568,6.464,9.813,6.464c0.277,0,0.555,0,0.853-0.021
			c4.565-0.363,8.363-3.605,9.493-8.043l21.333-85.333C214.443,306.22,210.987,300.439,205.248,299.009z"/>
	</g>
</g>
<g>
	<g>
		<path d="M354.581,299.009c-5.824-1.429-11.52,2.027-12.928,7.765L328,361.388l-19.52-45.568c-3.371-7.851-16.256-7.851-19.627,0
			l-19.52,45.568l-13.653-54.613c-1.429-5.739-7.317-9.216-12.928-7.765c-5.717,1.429-9.173,7.211-7.765,12.928l21.333,85.333
			c1.109,4.437,4.928,7.68,9.493,8.043c4.949,0.405,8.853-2.24,10.667-6.443l22.187-51.776l22.187,51.776
			c1.707,3.947,5.568,6.464,9.813,6.464c0.277,0,0.555,0,0.853-0.021c4.565-0.363,8.363-3.605,9.493-8.043l21.333-85.333
			C363.776,306.22,360.32,300.439,354.581,299.009z"/>
	</g>
</g>
<g>
	<g>
		<path d="M503.915,299.009c-5.803-1.429-11.52,2.027-12.928,7.765l-13.653,54.613l-19.52-45.568
			c-3.371-7.851-16.256-7.851-19.627,0l-19.52,45.568l-13.653-54.613c-1.408-5.739-7.317-9.216-12.928-7.765
			c-5.717,1.429-9.173,7.211-7.765,12.928l21.333,85.333c1.109,4.437,4.928,7.68,9.493,8.043c4.971,0.405,8.853-2.24,10.667-6.443
			L448,347.095l22.187,51.776c1.707,3.947,5.568,6.464,9.813,6.464c0.277,0,0.555,0,0.853-0.021
			c4.565-0.363,8.363-3.605,9.493-8.043l21.333-85.333C513.109,306.22,509.653,300.439,503.915,299.009z"/>
	</g>
</g>
<g>
</g>
<g>
</g>
<g>
</g>
<g>
</g>
<g>
</g>
<g>
</g>
<g>
</g>
<g>
</g>
<g>
</g>
<g>
</g>
<g>
</g>
<g>
</g>
<g>
</g>
<g>
</g>
<g>
</g>
</svg>
